<?xml version="1.0" encoding="utf-8"?>
<!-- Generator: Adobe Illustrator 23.0.3, SVG Export Plug-In . SVG Version: 6.00 Build 0)  -->
<svg version="1.1" id="图层_1" xmlns="http://www.w3.org/2000/svg" xmlns:xlink="http://www.w3.org/1999/xlink" x="0px" y="0px"
	 viewBox="0 0 15.3 16" style="enable-background:new 0 0 15.3 16;" xml:space="preserve">
<style type="text/css">
	.st0{fill:#FFFFFF;}
</style>
<path class="st0" d="M3.7,0.1c0.2,0.1,0.3,0.3,0.5,0.4C4.5,0.9,4.8,1.3,5,1.7c0.1,0.1,0.1,0.2,0.2,0.2c0.1,0,0.1,0,0.2,0h0.2
	l0.7-0.1c0.5,0,1,0,1.5,0c0.5,0,1,0.1,1.5,0.2h0.2c0.1,0,0.1,0,0.2,0c0.1,0,0.1-0.1,0.1-0.1c0-0.1,0.1-0.1,0.1-0.2
	c0.3-0.4,0.5-0.8,0.9-1.2c0.1-0.2,0.3-0.3,0.5-0.4c0.4-0.1,0.8,0,1,0.3c0.5,0.8,0.9,1.7,1.3,2.6c0.4,0.9,0.7,1.9,0.9,2.9
	c0.2,1,0.4,2,0.4,3c0.1,0.9,0.1,1.8-0.1,2.6c0,0.2-0.1,0.4-0.2,0.5c-0.1,0.1-0.3,0.2-0.5,0.1c-0.2,0-0.3-0.2-0.3-0.3
	c0-0.2,0-0.4,0.1-0.5c0.2-0.9,0.2-1.8,0.1-2.7c-0.2-2-0.7-4-1.5-5.8c-0.2-0.5-0.4-0.9-0.7-1.3c0,0-0.1-0.2-0.2-0.2s-0.2,0.1-0.2,0.2
	c-0.1,0.2-0.3,0.4-0.4,0.6c-0.1,0.3-0.3,0.6-0.6,0.8C9.9,3.2,9.5,3,9.2,2.9c-1-0.2-2-0.2-3-0.1c-0.2,0-0.5,0.1-0.7,0.1
	c-0.2,0-0.4,0-0.6,0C4.6,2.8,4.4,2.7,4.3,2.4C4.1,2,3.8,1.6,3.5,1.3C3.5,1.2,3.4,1.2,3.4,1.2s0,0-0.1,0.1C3.2,1.4,3.2,1.5,3.1,1.6
	C3,1.8,2.9,2,2.8,2.3C2.4,3.2,2,4.1,1.8,5.1c-0.3,1-0.5,2-0.6,3c-0.1,0.5-0.1,1-0.1,1.5c0,0.4,0,0.8,0.1,1.2c0.1,0.8,0.5,1.6,1,2.2
	c0.5,0.6,1.1,1,1.8,1.3c0.8,0.3,1.6,0.5,2.4,0.6C7.3,15,8.2,15,9.2,14.8c0.8-0.1,1.5-0.4,2.3-0.7c0.3-0.2,0.6-0.4,0.9-0.6
	c0.2-0.2,0.4-0.4,0.7-0.5c0.5-0.5,1.3-0.6,1.9-0.1c0.3,0.3,0.4,0.6,0.4,1c0,0.4-0.2,0.7-0.5,0.9c-0.3,0.3-0.7,0.3-1,0.2
	c-0.2-0.1-0.3-0.3-0.3-0.4c0-0.2,0.1-0.3,0.3-0.4c0.2-0.1,0.4-0.1,0.5-0.2c0-0.1,0.1-0.1,0.1-0.2c0-0.1,0-0.1-0.1-0.2
	c-0.1,0-0.2,0-0.3,0c-0.3,0.2-0.5,0.3-0.8,0.6c-0.3,0.3-0.6,0.5-0.9,0.7c-0.7,0.4-1.4,0.7-2.2,0.9C9.2,15.9,8.3,16,7.4,16
	c-1.7,0.1-3.4-0.4-4.8-1.2c-0.7-0.4-1.3-1-1.7-1.7c-0.5-0.7-0.8-1.5-0.9-2.3c0-0.4,0-0.8,0-1.2C0,9,0,8.5,0.1,8c0.1-1,0.3-2,0.6-2.9
	c0.3-1,0.6-1.9,1-2.8c0.2-0.4,0.4-0.9,0.7-1.3C2.6,0.5,2.7,0.1,3.1,0C3.3,0,3.5,0,3.7,0.1z M2.7,6.3c0.1-0.6,1.2-0.5,1.7-0.4
	c0.4,0,0.8,0.2,1.2,0.3c0.2,0.1,0.6,0.2,0.5,0.6c-0.1,0.3-0.5,0.3-1,0.5C4.7,7.4,4.1,7.7,3.7,8.1C3.5,8.2,3.3,8.3,3.2,8.2
	C3,8.1,2.9,8,2.9,7.8C3,7.4,4,6.9,4.3,6.8c-0.3,0-0.6,0-0.9,0C3,6.9,2.7,6.9,2.7,6.3z M10.5,5.9c0.5-0.1,1.7-0.1,1.7,0.4
	c0,0.5-0.3,0.6-0.7,0.5c-0.3,0-0.6,0-0.9,0C11,6.9,12,7.3,12,7.7c0.1,0.4-0.4,0.6-0.7,0.3c-0.5-0.4-1-0.7-1.6-0.8
	c-0.5-0.1-1-0.2-1-0.5C8.7,6.5,9,6.3,9.3,6.2C9.6,6,10.1,5.9,10.5,5.9z"/>
</svg>
